<?xml version="1.0" encoding="UTF-8"?><svg id="b" xmlns="http://www.w3.org/2000/svg" height="40" viewBox="0 0 163 70.57"><defs><style>.e{fill:#fff;}</style></defs><g id="c"><g id="d"><g><g><path class="e" d="M25.82,51.52h-4.93v3.48h4.51v2.16h-4.51v5.31h-2.94v-13.12h7.87v2.17Z"/><path class="e" d="M39.89,62.46h-3.44l-2.03-3.54c-.17-.3-.33-.55-.49-.76s-.31-.37-.46-.49-.32-.21-.49-.26-.36-.07-.56-.07h-.66v5.11h-2.94v-13.12h4.82c1.59,0,2.8,.3,3.65,.9s1.27,1.48,1.27,2.62c0,.46-.08,.89-.23,1.27-.15,.39-.37,.73-.65,1.04-.28,.3-.61,.57-.99,.78-.39,.22-.81,.38-1.27,.51v.04c.37,.14,.7,.36,1.01,.66,.31,.3,.61,.7,.92,1.18l2.55,4.11Zm-4.4-9.33c0-.64-.2-1.09-.59-1.35-.39-.26-.99-.38-1.78-.38h-1.35v3.89h.98c.41,0,.78-.04,1.12-.13s.63-.22,.87-.4c.24-.18,.43-.4,.56-.67,.13-.27,.2-.59,.2-.95Z"/><path class="e" d="M53.52,62.46h-3.17l-1.1-3.05h-4.94l-1.05,3.05h-3.17l5.09-13.12h3.29l5.05,13.12Zm-4.94-5.16l-1.45-4.16c-.07-.21-.14-.44-.21-.69-.07-.25-.11-.47-.12-.66h-.06c-.02,.19-.07,.4-.13,.64-.06,.24-.13,.49-.21,.74l-1.38,4.14h3.56Z"/><path class="e" d="M71.2,62.46h-2.88v-7.76c0-.39,0-.8,.02-1.23,.01-.43,.04-.9,.09-1.41h-.07c-.08,.35-.16,.67-.24,.95s-.17,.55-.27,.79l-3.44,8.65h-2.17l-3.5-8.68c-.1-.21-.19-.45-.27-.71-.08-.26-.17-.6-.26-1.01h-.06c.02,.23,.03,.44,.04,.64,.01,.2,.02,.4,.03,.6s.01,.41,.02,.63,0,.46,0,.73v7.78h-2.65v-13.12h4.06l3.07,7.59c.14,.33,.26,.66,.36,.99s.18,.61,.23,.87h.07c.09-.3,.19-.62,.31-.96s.23-.65,.34-.91l3.05-7.57h4.11v13.12Z"/><path class="e" d="M83.45,62.46h-8.2v-13.12h7.87v2.17h-4.93v3.23h4.54v2.17h-4.54v3.38h5.26v2.16Z"/><path class="e" d="M96.2,49.34l2.53,8.09c.14,.45,.24,.84,.32,1.19,.07,.35,.13,.64,.17,.9h.04c.02-.24,.08-.54,.15-.9s.19-.81,.35-1.34l2.07-7.93h3.09c-.68,2.2-1.34,4.38-2.01,6.56-.66,2.18-1.33,4.36-2,6.56h-3.15l-2.54-7.91c-.09-.28-.18-.61-.27-.99-.09-.39-.16-.76-.2-1.13-.08,.4-.17,.8-.26,1.2-.09,.4-.18,.73-.27,.99-.41,1.31-.83,2.62-1.25,3.92-.42,1.3-.84,2.61-1.25,3.92h-3.25l-3.88-13.12h3.11l2.04,7.98c.14,.48,.24,.9,.32,1.26,.07,.36,.13,.68,.16,.95h.05c.02-.21,.08-.5,.15-.85s.19-.79,.35-1.29l2.61-8.04h2.82Z"/><path class="e" d="M112.83,62.69c-1.01,0-1.93-.16-2.76-.48s-1.54-.77-2.13-1.36c-.59-.59-1.05-1.29-1.37-2.1s-.49-1.71-.49-2.68,.16-1.95,.48-2.8c.32-.85,.78-1.58,1.39-2.2,.6-.61,1.33-1.09,2.2-1.43s1.84-.51,2.93-.51c1.01,0,1.92,.17,2.73,.5s1.51,.8,2.09,1.39,1.02,1.3,1.34,2.1c.31,.81,.47,1.69,.47,2.65,0,1.06-.17,2.01-.5,2.87s-.8,1.58-1.41,2.18c-.61,.6-1.33,1.06-2.17,1.39-.84,.33-1.77,.49-2.79,.49Zm.13-11.34c-.59,0-1.13,.11-1.6,.33s-.87,.53-1.2,.93-.58,.88-.75,1.44-.26,1.18-.26,1.87,.08,1.32,.25,1.87c.17,.56,.41,1.03,.73,1.43,.32,.39,.71,.7,1.17,.92,.46,.22,.98,.32,1.56,.32,.61,0,1.15-.1,1.62-.3s.87-.5,1.18-.89c.32-.39,.56-.86,.72-1.42,.16-.56,.24-1.19,.24-1.9s-.08-1.37-.23-1.94-.38-1.05-.69-1.45c-.31-.39-.69-.7-1.15-.9-.46-.21-.99-.31-1.59-.31Z"/><path class="e" d="M133.76,62.46h-3.44l-2.03-3.54c-.17-.3-.33-.55-.49-.76s-.31-.37-.46-.49-.32-.21-.49-.26-.36-.07-.56-.07h-.66v5.11h-2.94v-13.12h4.82c1.59,0,2.8,.3,3.65,.9s1.27,1.48,1.27,2.62c0,.46-.08,.89-.23,1.27-.15,.39-.37,.73-.65,1.04-.28,.3-.61,.57-.99,.78-.39,.22-.81,.38-1.27,.51v.04c.37,.14,.7,.36,1.01,.66,.31,.3,.61,.7,.92,1.18l2.55,4.11Zm-4.4-9.33c0-.64-.2-1.09-.59-1.35-.39-.26-.99-.38-1.78-.38h-1.35v3.89h.98c.41,0,.78-.04,1.12-.13s.63-.22,.87-.4c.24-.18,.43-.4,.56-.67,.13-.27,.2-.59,.2-.95Z"/><path class="e" d="M147.07,62.46h-3.49l-4.21-5.71c-.06-.07-.13-.18-.22-.32s-.17-.28-.23-.41h-.05v6.44h-2.94v-13.12h2.94v6.19h.05c.04-.08,.11-.19,.2-.33s.18-.27,.27-.39l4-5.47h3.26l-4.8,6.28,5.22,6.83Z"/></g><g><path class="e" d="M83.61,32.65c-.8,0-1.47-.25-2-.74-.53-.49-.8-1.1-.8-1.81s.27-1.34,.82-1.81c.55-.47,1.23-.71,2.05-.71s1.51,.24,2.04,.71c.53,.48,.79,1.08,.79,1.81s-.27,1.36-.81,1.84-1.24,.72-2.1,.72Z"/><path class="e" d="M110.29,32.27h-5.01l-9.09-13.85c-.53-.81-.9-1.42-1.11-1.83h-.06c.08,.78,.12,1.97,.12,3.57v12.12h-4.69V10.22h5.35l8.75,13.42c.4,.6,.77,1.2,1.11,1.8h.06c-.08-.51-.12-1.52-.12-3.03V10.22h4.69v22.05Z"/><path class="e" d="M128.55,32.27h-13.22V10.22h12.72v4.04h-7.75v4.9h7.21v4.03h-7.21v5.04h8.26v4.03Z"/><path class="e" d="M147.85,14.26h-6.29v18h-4.98V14.26h-6.26v-4.04h17.53v4.04Z"/></g></g><g><path class="e" d="M57.72,17.43c0-2.27-1.33-3.4-3.99-3.4h-1.96v6.88h1.96c2.66,0,3.99-1.16,3.99-3.48Z"/><path class="e" d="M19.1,17.43c0-2.27-1.33-3.4-3.99-3.4h-1.96v6.88h1.96c2.66,0,3.99-1.16,3.99-3.48Z"/><path class="e" d="M163,.13H69.86S.04,0,.04,0V40.28h-.04v30.29H163v-27.94h0V.13Zm-2.27,2.27V40.28H69.86V2.4h90.87ZM46.77,10.21h7.83c5.59,0,8.38,2.35,8.38,7.04,0,2.22-.8,4.01-2.41,5.38-1.6,1.37-3.75,2.06-6.43,2.06h-2.38v7.61h-5V10.21Zm-19.64,6.31h4.89v2.5h.06c1.16-1.92,2.86-2.88,5.09-2.88,3.51,0,5.26,2.17,5.26,6.5v9.66h-4.87v-8.76c0-2.44-.88-3.67-2.63-3.67-.85,0-1.54,.32-2.09,.97-.55,.65-.82,1.47-.82,2.46v8.99h-4.89v-15.77ZM8.15,10.21h7.83c5.59,0,8.38,2.35,8.38,7.04,0,2.22-.8,4.01-2.41,5.38-1.6,1.37-3.75,2.06-6.43,2.06h-2.38v7.61h-5V10.21Zm152.58,58.09H2.27v-25.75H30.11l37.42,.06h0s93.2,.01,93.2,.01v25.67Z"/></g></g></g></svg>